<svg width="108" height="108" viewBox="0 0 108 108" fill="none" xmlns="http://www.w3.org/2000/svg">
<path d="M84 0H24C10.7452 0 0 10.7452 0 24V84C0 97.2548 10.7452 108 24 108H84C97.2548 108 108 97.2548 108 84V24C108 10.7452 97.2548 0 84 0Z" fill="white"/>
<path d="M76.4615 72C77.2992 72 78.1369 72 79 72C79 75.63 79 79.26 79 83C75.37 83 71.74 83 68 83C68 81.9629 68 80.9257 68 79.8571C70.7923 79.8571 73.5846 79.8571 76.4615 79.8571C76.4615 77.2643 76.4615 74.6714 76.4615 72Z" fill="#141414"/>
<path d="M28 72C28.8377 72 29.6754 72 30.5385 72C30.5385 74.5929 30.5385 77.1857 30.5385 79.8571C33.3308 79.8571 36.1231 79.8571 39 79.8571C39 80.8943 39 81.9314 39 83C35.37 83 31.74 83 28 83C28 79.37 28 75.74 28 72Z" fill="#141414"/>
<path d="M68 26C71.63 26 75.26 26 79 26C79 29.63 79 33.26 79 37C78.1623 37 77.3246 37 76.4615 37C76.4615 34.4071 76.4615 31.8143 76.4615 29.1429C73.6692 29.1429 70.8769 29.1429 68 29.1429C68 28.1057 68 27.0686 68 26Z" fill="#141414"/>
<path d="M28 26C31.63 26 35.26 26 39 26C39 27.0371 39 28.0743 39 29.1429C36.2077 29.1429 33.4154 29.1429 30.5385 29.1429C30.5385 31.7357 30.5385 34.3286 30.5385 37C29.7008 37 28.8631 37 28 37C28 33.37 28 29.74 28 26Z" fill="#141414"/>
<path d="M45.3693 33.0262C46.0122 33.0239 46.6551 33.0216 47.3176 33.0192C48.6767 33.0175 50.0358 33.022 51.3949 33.0322C53.4723 33.0452 55.5483 33.0323 57.6256 33.0168C58.9469 33.0184 60.2683 33.0215 61.5896 33.0262C62.5197 33.0189 62.5197 33.0189 63.4686 33.0113C66.9997 33.0578 68.9967 33.3252 71.545 35.779C71.9608 37.4387 71.9608 37.4387 71.9687 39.3624C71.979 40.0842 71.9894 40.8059 72 41.5495C71.9934 42.3267 71.9867 43.1038 71.9799 43.9045C71.983 44.7044 71.9862 45.5043 71.9894 46.3284C71.9916 48.0197 71.9856 49.7111 71.9719 51.4024C71.9544 53.9948 71.9717 56.5854 71.9927 59.1778C71.9905 60.82 71.9863 62.4622 71.9799 64.1044C71.9865 64.8816 71.9932 65.6587 72 66.4594C71.9897 67.1812 71.9794 67.9029 71.9687 68.6465C71.9648 69.5987 71.9648 69.5987 71.9608 70.5702C71.545 72.2299 71.545 72.2299 70.071 73.6492C67.3522 75.1752 64.6324 75.0068 61.5896 74.9827C60.624 74.9862 60.624 74.9862 59.6389 74.9897C58.2812 74.9914 56.9235 74.9869 55.5659 74.9768C53.4868 74.9637 51.409 74.9767 49.33 74.9922C48.0097 74.9906 46.6895 74.9875 45.3693 74.9827C44.7475 74.9876 44.1258 74.9925 43.4852 74.9976C39.1839 74.9407 39.1839 74.9407 37.4059 73.6492C36.0629 71.8588 36.0303 70.863 36.0235 68.6465C36.0157 67.9248 36.008 67.203 36 66.4594C36.0075 65.2937 36.0075 65.2937 36.0151 64.1044C36.0127 63.3045 36.0104 62.5047 36.0079 61.6806C36.0063 59.9892 36.0108 58.2979 36.0211 56.6066C36.0342 54.0144 36.0212 51.4233 36.0055 48.8311C36.0071 47.1889 36.0102 45.5467 36.0151 43.9045C36.0101 43.1274 36.0051 42.3502 36 41.5495C36.0077 40.8278 36.0155 40.106 36.0235 39.3624C36.0254 38.7276 36.0274 38.0928 36.0294 37.4387C36.9529 32.5242 41.2052 32.9933 45.3693 33.0262Z" fill="#040404"/>
<path d="M47 61C51.29 61 55.58 61 60 61C60 61.99 60 62.98 60 64C55.71 64 51.42 64 47 64C47 63.01 47 62.02 47 61Z" fill="#FBFBFB"/>
<path d="M47 53C51.29 53 55.58 53 60 53C60 53.99 60 54.98 60 56C55.71 56 51.42 56 47 56C47 55.01 47 54.02 47 53Z" fill="#FBFBFB"/>
<path d="M47 45C51.29 45 55.58 45 60 45C60 45.99 60 46.98 60 48C55.71 48 51.42 48 47 48C47 47.01 47 46.02 47 45Z" fill="#FBFBFB"/>
</svg>
